<svg version="1.1" xmlns="http://www.w3.org/2000/svg" xmlns:xlink="http://www.w3.org/1999/xlink" width="95.17898" height="99.84079" viewBox="0,0,95.17898,99.84079"><g transform="translate(-192.32102,-130.3)"><g data-paper-data="{&quot;isPaintingLayer&quot;:true}" fill-rule="evenodd" stroke-miterlimit="10" stroke-dasharray="" stroke-dashoffset="0" style="mix-blend-mode: normal"><g data-paper-data="{&quot;index&quot;:null}"><path d="M213.90001,156.84156c-2.4,0.5 -5.3,1.3 -7.7,3.5c-5.5,4.9 -7.2,13 -11,10.9c-3.9,-2.1 -3.8,-15.2 8.4,-19.2c4.2,-1.4 8,-1.4 11.1,-1.3c0.8,0 7.7,0.7 10.1,4.1c2.4,3.4 0.7,4.3 -0.1,4.7c-0.9,0.5 -7.4,-3.3 -10.8,-2.7z" fill="#ffab19" stroke="#001026" stroke-width="1.2" stroke-linecap="round" stroke-linejoin="round"/><path d="M195.80002,171.04156c-2,-0.6 -3,-4.8 -2,-8.3c1,-3.5 2.6,-5.3 3.9,-6.6c-0.2,0.7 -0.6,2.9 1.1,4.2c2.1,1.7 5.8,0.8 5.8,0.8c0,0 -3.1,3.8 -4.7,6.5c-1.6,2.3 -2.1,3.8 -4.1,3.4z" fill="#ffffff" stroke="none" stroke-width="1" stroke-linecap="butt" stroke-linejoin="miter"/></g><path d="M230.00001,156.04156c-3.7,3.2 -8.3,-0.5 -10.3,-2c-2,-1.5 -3,-2.4 -7.3,-4.6c-1.7,-0.9 -3.9,-1.7 -5.1,-2.1c-0.5,-0.1 -1,-0.1 -1.5,0.1c-0.9,0.4 -2.6,1.1 -4.5,-0.3c-4.2,-3.7 5.7,-17.8 11,-16.1c5.5,1.7 2.4,6.5 0.7,8.9c-0.2,0.4 0,0.9 0.4,1l0.4,0.1c7.9,2.5 14.1,6.9 15.9,8.1c1.7,1.2 3.5,4.2 0.3,6.9z" data-paper-data="{&quot;index&quot;:null}" fill="#ffab19" stroke="#001026" stroke-width="1.2" stroke-linecap="round" stroke-linejoin="round"/><path d="M240.40001,167.94156c0,-2.6 2.1,-5.3 3.3,-6.9c1.2,-1.6 6.8,-7.5 13.7,-4.4c2.9,1.5 9.7,7.1 6.1,10.4c-3.6,3.3 -6.9,-0.8 -9.3,-2.9c-2,-1.8 -8.1,5.4 -8.6,5.8c-1.7,1.5 -5.1,0.8 -5.2,-2z" data-paper-data="{&quot;index&quot;:null}" fill="#ffab19" stroke="#001026" stroke-width="1.2" stroke-linecap="round" stroke-linejoin="round"/><g data-paper-data="{&quot;index&quot;:null}"><path d="M238.20001,153.94156c1.2,0.9 2.4,2.4 4,4.7c1.3,1.9 2.7,5.6 2.7,5.6c0.9,2.5 1.5,7.3 -1.8,7.2c-2.2,-0.1 -4.2,0.2 -7.6,0.7c-6,1.2 -7.1,2 -9.6,-2.1c-2.7,-4.8 -9.6,-8.3 -1.1,-16.6c0,0 4.9,-3.8 10.8,-9.6c4,-3.9 10.3,-9.5 12.5,-11.4c0.5,-0.4 1.1,-0.6 1.7,-0.7c9.7,-0.9 16.9,0.1 16.9,4.4c0,7.2 -14.3,4.7 -14.3,4.7c0,0 -4.6,3.9 -6.7,5.8z" fill="#ffab19" stroke="#001026" stroke-width="1.2" stroke-linecap="round" stroke-linejoin="round"/><path d="M242.60001,160.64156c0,0 1.9,2.5 -2.4,5.2c-4.5,2.9 -6.2,-0.3 -8,-2.7c-2,-3.1 0,-4.6 2,-6.4c1.6,-1.5 3.1,-2.7 3.1,-2.7c0,0 3.1,2.1 5.3,6.6z" fill="#ffffff" stroke="none" stroke-width="1" stroke-linecap="butt" stroke-linejoin="miter"/></g><path d="M222.30002,163.84156c1.1,0.7 2.6,1.9 4.1,3c2.5,1.8 6.1,5.8 1.1,7.6c-4,1.5 -7.6,-1.3 -11.9,-4.4c-2.2,-1.7 -4.8,-3.7 -3.9,-6.8c1,-3.5 5.9,-13.5 11.8,-10.2c4.3,2.9 0.9,6.4 -1.3,9.2c-0.3,0.5 -0.2,1.1 0.1,1.6z" data-paper-data="{&quot;index&quot;:null}" fill="#ffab19" stroke="#001026" stroke-width="1.2" stroke-linecap="round" stroke-linejoin="round"/><g data-paper-data="{&quot;index&quot;:null}"><path d="M245.10001,221.64156c-2.3,0.4 -4.7,0.6 -7.5,0.4c-4.7,-0.2 -9.2,-1.9 -9.2,-1.9l-12.1,7.9c-0.4,0.2 -0.9,-0.1 -0.8,-0.5l2.1,-17.9c0.6,0.8 -10.6,-12.8 -3.5,-24.2c7.1,-11.4 22.2,-16.5 41,-12.8c18.8,3.7 23.2,14.5 22,20.2c-1.2,5.7 -8.3,7.8 -8.3,7.8c0,0 -0.1,4.5 -3.3,10c-1.9,3.3 -8.3,8 -8.3,8l-2.6,10.7c-0.1,0.4 -0.6,0.5 -0.9,0.3z" fill="#ffab19" stroke="#001026" stroke-width="1.2" stroke-linecap="butt" stroke-linejoin="miter"/><path d="M252.00001,195.34156c-8.4,-0.6 -19.9,8.5 -26.6,-2.2c-6.7,-10.6 4.8,-25 29,-20c18.6,3.6 23.4,13.9 22.2,19.6c-1.2,5.7 -8.1,7.5 -8.1,7.5c-8.5,1.9 -9.3,-4.4 -16.5,-4.9z" fill="#ffffff" stroke="none" stroke-width="1" stroke-linecap="butt" stroke-linejoin="miter"/><path d="M246.70001,177.24156c10.5,-0.6 14.3,6.9 15.2,9.6c0.2,0.5 -0.2,1 -0.7,0.9c-1.5,-0.3 -4.7,-0.6 -10.1,-0.3c-6,0.4 -11.4,2 -13.3,2.7c-0.4,0.1 -0.8,-0.2 -0.8,-0.6c-0.3,-4.9 0.6,-11.3 9.7,-12.3z" fill="#ffffff" stroke="#001026" stroke-width="1.2" stroke-linecap="round" stroke-linejoin="round"/><path d="M275.00001,195.24156c0,0 7.2,0.1 11.9,3.9" fill="none" stroke="#001026" stroke-width="1.2" stroke-linecap="round" stroke-linejoin="round"/><path d="M275.40001,189.34156c0,0 3.9,-1.9 10.2,-1.4" fill="none" stroke="#001026" stroke-width="1.2" stroke-linecap="round" stroke-linejoin="round"/><path d="M247.00001,196.64156c0,-1.6 4.2,-4.1 6,-3.9c1.6,0.1 3.1,2.9 3,4.3c-0.1,0.7 -2.3,0.9 -4.4,0.9c-2,0 -4.7,-0.1 -4.6,-1.3z" fill="#001026" stroke="#001026" stroke-width="1.2" stroke-linecap="round" stroke-linejoin="round"/><path d="M218.70001,193.54156c-3.5,3.1 -12.1,5.9 -12.1,5.9" fill="none" stroke="#001026" stroke-width="1.2" stroke-linecap="round" stroke-linejoin="round"/><path d="M207.30002,189.44156c0,0 7.4,-1.1 11.7,0.6" fill="none" stroke="#001026" stroke-width="1.2" stroke-linecap="round" stroke-linejoin="round"/><g><path d="M253.00001,214.44156c-2.8,-1.8 -2.7,-6.9 0.2,-11.4c3,-4.5 7.6,-6.6 10.4,-4.8c2.8,1.8 2.7,6.9 -0.2,11.4c-2.9,4.5 -7.6,6.7 -10.4,4.8z" fill="#ffffff" stroke="#001026" stroke-width="1.2" stroke-linecap="round" stroke-linejoin="round"/><path d="M263.00001,203.94156c0,1.1 -0.8,2 -1.8,2c-1,0 -1.8,-0.9 -1.8,-2c0,-1.1 0.8,-2 1.8,-2c1,0 1.8,0.9 1.8,2" fill="#001026" stroke="none" stroke-width="1" stroke-linecap="butt" stroke-linejoin="miter"/></g><g><path d="M227.80001,211.34156c-3.1,-2.2 -2.9,-7.9 0.2,-12.3c3,-4.4 7.4,-5.8 10.7,-3.9c2.7,1.9 2.9,7.3 -0.1,11.7c-3,4.4 -7.7,6.8 -10.8,4.5z" fill="#ffffff" stroke="#001026" stroke-width="1.2" stroke-linecap="round" stroke-linejoin="round"/><path d="M238.00001,201.04156c0,1.1 -0.8,1.9 -1.8,2c-1,0 -1.8,-0.9 -1.8,-2c0,-1.1 0.8,-2 1.8,-2c1,0 1.8,0.9 1.8,2" fill="#001026" stroke="none" stroke-width="1" stroke-linecap="butt" stroke-linejoin="miter"/></g></g></g></g></svg>