<svg version="1.1" xmlns="http://www.w3.org/2000/svg" xmlns:xlink="http://www.w3.org/1999/xlink" width="79.1222" height="31.39461" viewBox="0,0,79.1222,31.39461"><g transform="translate(-200.4389,-164.31426)"><g data-paper-data="{&quot;isPaintingLayer&quot;:true}" stroke-miterlimit="10" stroke-dasharray="" stroke-dashoffset="0" style="mix-blend-mode: normal"><g><path d="M243.9979,195.17254c-1.3167,0.05633 -2.6453,0.05633 -3.9979,0.05633c-21.5455,0 -39.0811,-4.97618 -39.0811,-11.09956c0,-6.12343 17.5356,-11.09249 39.0811,-11.09249c11.1558,0 21.1624,1.34429 28.3442,3.45584c4.5246,2.51269 6.4756,5.91927 3.2558,9.55111c-4.6921,5.27173 -17.8468,7.883 -27.6021,9.12876z" fill="#fff2bb" fill-rule="nonzero" stroke="none" stroke-width="1" stroke-linecap="butt" stroke-linejoin="miter"/><path d="M243.962,195.19364c9.7553,-1.26686 22.91,-3.87813 27.6021,-9.14986c3.2198,-3.63184 1.2688,-7.02434 -3.2558,-9.55111c6.6911,2.00591 10.7728,4.68052 10.7728,7.63665c0,5.73626 -15.3811,10.47311 -35.1191,11.06432z" fill="#ffffff" fill-rule="nonzero" stroke="none" stroke-width="1" stroke-linecap="butt" stroke-linejoin="miter"/><path d="M279.0811,184.12931c0,5.75035 -15.3811,10.47311 -35.0832,11.04323c-1.3167,0.05633 -2.6453,0.05633 -3.9979,0.05633c-21.5455,0 -39.0811,-4.97618 -39.0811,-11.09956c0,-6.12343 17.5356,-11.09249 39.0811,-11.09249c11.1558,0 21.1624,1.34429 28.3442,3.45584c6.6552,1.99183 10.7369,4.68052 10.7369,7.63665z" fill="none" fill-rule="evenodd" stroke="#5e154d" stroke-width="0.96" stroke-linecap="round" stroke-linejoin="round"/><path d="M227.372,192.6176c-1.0175,-0.0915 -1.987,-0.21117 -2.9326,-0.33785" fill="none" fill-rule="evenodd" stroke="#efdc8f" stroke-width="1.92" stroke-linecap="round" stroke-linejoin="round"/><path d="M220.4894,191.6252c-4.3296,-0.78649 -8.3839,-2.02373 -11.9697,-3.65293" fill="none" fill-rule="evenodd" stroke="#efdc8f" stroke-width="1.92" stroke-linecap="round" stroke-linejoin="round"/></g><path d="M263.3768,180.52564c0.6703,2.18898 1.0414,3.70926 1.0414,3.70926c-2.3491,1.32641 -5.1761,2.32477 -8.2711,2.9209c-5.1948,1.00649 -9.1209,1.3021 -16.1471,1.3021c-7.0262,0 -10.9523,-0.30969 -16.1471,-1.31618c-3.0928,-0.59197 -5.9196,-1.58543 -8.2711,-2.90681c0,0 0.3711,-1.52028 1.0653,-3.70926c3.579,1.37952 11.2396,3.60367 23.3529,3.60367c12.1373,-0.00707 19.7979,-2.22415 23.3768,-3.60367z" fill="#5e154d" fill-rule="nonzero" stroke="#5e154d" stroke-width="0.96" stroke-linecap="round" stroke-linejoin="round"/><g><path d="M229.1195,164.83707c1.693,0.22753 3.2239,0.7588 4.381,1.52028c1.7116,1.09098 3.9739,1.33733 6.4995,1.33733c2.5256,0 4.7879,-0.24635 6.4995,-1.33733c2.4179,-1.49919 6.1046,-2.35083 8.8097,-0.53489c0,0 -7.2895,14.18938 -20.8871,12.47908c-9.5039,-1.19657 -7.3494,-8.8473 -5.3026,-13.46447z" fill="#ffffff" fill-rule="nonzero" stroke="none" stroke-width="1" stroke-linecap="butt" stroke-linejoin="miter"/><path d="M262.9938,179.43471c0.1197,0.36596 0.2274,0.72497 0.3351,1.06983c-3.5789,1.37952 -11.2395,3.60367 -23.3528,3.60367c-12.1134,-0.00707 -19.762,-2.19599 -23.3529,-3.60367c0.1077,-0.36602 0.2154,-0.6968 0.3471,-1.06983c1.4962,-4.61718 4.1295,-11.24032 7.7205,-13.6334c1.0544,-0.7834 2.7564,-1.16209 4.4287,-0.98534c-1.7715,5.40548 -4.1295,11.67669 5.3026,13.08437c11.1558,1.64696 16.8773,-7.74223 18.7446,-12.95769c5.3624,0.73905 9.5757,13.55592 9.8271,14.49206z" fill="#fff2bb" fill-rule="nonzero" stroke="none" stroke-width="1" stroke-linecap="butt" stroke-linejoin="miter"/><path d="M263.3289,180.52564c-3.5789,1.37952 -11.2395,3.60367 -23.3528,3.60367c-12.1134,-0.00707 -19.762,-2.19599 -23.3529,-3.60367c0.1077,-0.36596 0.2154,-0.6968 0.3471,-1.06983c1.4962,-4.61718 4.1295,-11.24032 7.7205,-13.63334c1.0544,-0.78346 2.7564,-1.16215 4.4287,-0.9854c1.693,0.22753 3.2239,0.7588 4.381,1.52028c1.7116,1.09098 3.9739,1.33733 6.4995,1.33733c2.5256,0 4.7879,-0.24635 6.4995,-1.33026c2.4179,-1.49919 5.9969,-2.42124 8.8097,-0.53494c2.8129,1.8863 5.0752,6.44715 6.6432,10.5576c0.407,1.06983 0.7661,2.1115 1.0893,3.06873c0.1197,0.37303 0.2274,0.72497 0.2872,1.06983z" fill="none" fill-rule="evenodd" stroke="#5e154d" stroke-width="0.96" stroke-linecap="round" stroke-linejoin="round"/></g></g></g></svg>